<svg xmlns="http://www.w3.org/2000/svg" viewBox="0 0 113.73 113.73" width="1000" height="1000"><defs><style>.cls-2{fill:#03a9f4}.cls-3{fill:#fff}</style></defs><circle cx="56.87" cy="56.87" r="56.87" class="cls-2"/><path d="M86.73 69.99a3.536 3.536 0 1 0-5 5l.42.42c-7.46-1.38-14.4-6.09-19.9-13.59l-3.17-4.32 3.17-4.32c5.51-7.5 12.45-12.21 19.9-13.59l-.42.42a3.536 3.536 0 0 0 5 5l6.86-6.86a3.52 3.52 0 0 0 0-5l-6.86-6.86a3.536 3.536 0 0 0-5 5l1.1 1.1c-9.91 1.25-19.31 7.16-26.27 16.65l-1.86 2.54-1.86-2.54C44.98 38.2 33.96 32.08 22.63 32.08a3.52 3.52 0 0 0 0 7c9.2 0 17.91 5 24.55 14l3.17 4.32-3.17 4.32c-6.64 9-15.35 14-24.55 14a3.52 3.52 0 0 0 0 7c11.33 0 22.35-6.16 30.23-16.9l1.86-2.54 1.86 2.54c7 9.48 16.36 15.39 26.27 16.65l-1.1 1.1a3.536 3.536 0 1 0 5 5l6.86-6.86a3.52 3.52 0 0 0 0-5z" class="cls-3"/></svg>